<?xml version="1.0" encoding="UTF-8" standalone="no"?>
<!DOCTYPE svg PUBLIC "-//W3C//DTD SVG 1.1//EN"
 "http://www.w3.org/Graphics/SVG/1.1/DTD/svg11.dtd">
<!-- Generated by graphviz version 2.47.1 (20210417.1919)
 -->
<!-- Pages: 1 -->
<svg width="711pt" height="643pt"
 viewBox="0.00 0.00 711.30 643.05" xmlns="http://www.w3.org/2000/svg" xmlns:xlink="http://www.w3.org/1999/xlink">
<g id="graph0" class="graph" transform="scale(1 1) rotate(0) translate(14.4 628.65)">
<polygon fill="white" stroke="transparent" points="-14.4,14.4 -14.4,-628.65 696.9,-628.65 696.9,14.4 -14.4,14.4"/>
<!-- 23 -->
<g id="node1" class="node">
<title>23</title>
<polygon fill="none" stroke="black" points="355.62,-334.82 301.62,-334.82 301.62,-298.82 355.62,-298.82 355.62,-334.82"/>
<text text-anchor="middle" x="328.62" y="-313.02" font-family="Helvetica Neue" font-size="16.00">GBD</text>
</g>
<!-- 10 -->
<g id="node2" class="node">
<title>10</title>
<polygon fill="none" stroke="black" points="451.86,-354.38 397.86,-354.38 397.86,-318.38 451.86,-318.38 451.86,-354.38"/>
<text text-anchor="middle" x="424.86" y="-332.58" font-family="Helvetica Neue" font-size="16.00">DF#A</text>
</g>
<!-- 23&#45;&gt;10 -->
<g id="edge1" class="edge">
<title>23&#45;&gt;10</title>
<path fill="none" stroke="black" d="M355.68,-330C355.68,-330 387.66,-330 387.66,-330"/>
<polygon fill="black" stroke="black" points="387.66,-333.5 397.66,-330 387.66,-326.5 387.66,-333.5"/>
</g>
<!-- 18 -->
<g id="node3" class="node">
<title>18</title>
<polygon fill="none" stroke="black" points="552.27,-504.47 495.27,-504.47 495.27,-468.47 552.27,-468.47 552.27,-504.47"/>
<text text-anchor="middle" x="523.77" y="-482.67" font-family="Helvetica Neue" font-size="16.00">GABD</text>
</g>
<!-- 23&#45;&gt;18 -->
<g id="edge19" class="edge">
<title>23&#45;&gt;18</title>
<path fill="none" stroke="black" d="M350.22,-334.92C350.22,-375.86 350.22,-472 350.22,-472 350.22,-472 485.12,-472 485.12,-472"/>
<polygon fill="black" stroke="black" points="485.12,-475.5 495.12,-472 485.12,-468.5 485.12,-475.5"/>
</g>
<!-- 19 -->
<g id="node4" class="node">
<title>19</title>
<polygon fill="none" stroke="black" points="572.99,-438.36 518.99,-438.36 518.99,-402.36 572.99,-402.36 572.99,-438.36"/>
<text text-anchor="middle" x="545.99" y="-416.56" font-family="Helvetica Neue" font-size="16.00">GAD</text>
</g>
<!-- 23&#45;&gt;19 -->
<g id="edge4" class="edge">
<title>23&#45;&gt;19</title>
<path fill="none" stroke="black" d="M352.02,-335C352.02,-367 352.02,-430 352.02,-430 352.02,-430 508.61,-430 508.61,-430"/>
<polygon fill="black" stroke="black" points="508.61,-433.5 518.61,-430 508.61,-426.5 508.61,-433.5"/>
</g>
<!-- 17 -->
<g id="node5" class="node">
<title>17</title>
<polygon fill="none" stroke="black" points="465.83,-139.73 400.83,-139.73 400.83,-103.73 465.83,-103.73 465.83,-139.73"/>
<text text-anchor="middle" x="433.33" y="-117.93" font-family="Helvetica Neue" font-size="16.00">F#GBD</text>
</g>
<!-- 23&#45;&gt;17 -->
<g id="edge7" class="edge">
<title>23&#45;&gt;17</title>
<path fill="none" stroke="black" d="M355.93,-305C381.21,-305 414.93,-305 414.93,-305 414.93,-305 414.93,-149.97 414.93,-149.97"/>
<polygon fill="black" stroke="black" points="418.43,-149.97 414.93,-139.97 411.43,-149.97 418.43,-149.97"/>
</g>
<!-- 6 -->
<g id="node10" class="node">
<title>6</title>
<polygon fill="none" stroke="black" points="170.59,-136.47 105.59,-136.47 105.59,-100.47 170.59,-100.47 170.59,-136.47"/>
<text text-anchor="middle" x="138.09" y="-114.67" font-family="Helvetica Neue" font-size="16.00">C#EGA</text>
</g>
<!-- 23&#45;&gt;6 -->
<g id="edge15" class="edge">
<title>23&#45;&gt;6</title>
<path fill="none" stroke="black" d="M309.31,-298.57C309.31,-251.56 309.31,-130 309.31,-130 309.31,-130 180.7,-130 180.7,-130"/>
<polygon fill="black" stroke="black" points="180.7,-126.5 170.7,-130 180.7,-133.5 180.7,-126.5"/>
</g>
<!-- 21 -->
<g id="node13" class="node">
<title>21</title>
<polygon fill="none" stroke="black" points="671.52,-415.69 603.52,-415.69 603.52,-379.69 671.52,-379.69 671.52,-415.69"/>
<text text-anchor="middle" x="637.52" y="-393.89" font-family="Helvetica Neue" font-size="16.00">GBC#D</text>
</g>
<!-- 23&#45;&gt;21 -->
<g id="edge20" class="edge">
<title>23&#45;&gt;21</title>
<path fill="none" stroke="black" d="M355.67,-311C427.24,-311 616.14,-311 616.14,-311 616.14,-311 616.14,-369.31 616.14,-369.31"/>
<polygon fill="black" stroke="black" points="612.64,-369.31 616.14,-379.31 619.64,-369.31 612.64,-369.31"/>
</g>
<!-- 4 -->
<g id="node19" class="node">
<title>4</title>
<polygon fill="none" stroke="black" points="107.29,-551.52 51.29,-551.52 51.29,-515.52 107.29,-515.52 107.29,-551.52"/>
<text text-anchor="middle" x="79.29" y="-529.72" font-family="Helvetica Neue" font-size="16.00">BDFG</text>
</g>
<!-- 23&#45;&gt;4 -->
<g id="edge29" class="edge">
<title>23&#45;&gt;4</title>
<path fill="none" stroke="black" d="M301.42,-313C237.52,-313 83.21,-313 83.21,-313 83.21,-313 83.21,-505.47 83.21,-505.47"/>
<polygon fill="black" stroke="black" points="79.71,-505.47 83.21,-515.47 86.71,-505.47 79.71,-505.47"/>
</g>
<!-- 20 -->
<g id="node22" class="node">
<title>20</title>
<polygon fill="none" stroke="black" points="75.75,-175.04 21.75,-175.04 21.75,-139.04 75.75,-139.04 75.75,-175.04"/>
<text text-anchor="middle" x="48.75" y="-153.24" font-family="Helvetica Neue" font-size="16.00">GB</text>
</g>
<!-- 23&#45;&gt;20 -->
<g id="edge33" class="edge">
<title>23&#45;&gt;20</title>
<path fill="none" stroke="black" d="M301.17,-306C235,-306 72.13,-306 72.13,-306 72.13,-306 72.13,-185.3 72.13,-185.3"/>
<polygon fill="black" stroke="black" points="75.63,-185.3 72.13,-175.3 68.63,-185.3 75.63,-185.3"/>
</g>
<!-- 22 -->
<g id="node24" class="node">
<title>22</title>
<polygon fill="none" stroke="black" points="68.52,-394.33 9.52,-394.33 9.52,-358.33 68.52,-358.33 68.52,-394.33"/>
<text text-anchor="middle" x="39.02" y="-372.53" font-family="Helvetica Neue" font-size="16.00">GBCD</text>
</g>
<!-- 23&#45;&gt;22 -->
<g id="edge38" class="edge">
<title>23&#45;&gt;22</title>
<path fill="none" stroke="black" d="M316.02,-335.07C316.02,-350.12 316.02,-369 316.02,-369 316.02,-369 78.66,-369 78.66,-369"/>
<polygon fill="black" stroke="black" points="78.66,-365.5 68.66,-369 78.66,-372.5 78.66,-365.5"/>
</g>
<!-- 10&#45;&gt;23 -->
<g id="edge6" class="edge">
<title>10&#45;&gt;23</title>
<path fill="none" stroke="black" d="M397.79,-326C397.79,-326 365.81,-326 365.81,-326"/>
<polygon fill="black" stroke="black" points="365.81,-322.5 355.81,-326 365.81,-329.5 365.81,-322.5"/>
</g>
<!-- 10&#45;&gt;18 -->
<g id="edge2" class="edge">
<title>10&#45;&gt;18</title>
<path fill="none" stroke="black" d="M427.68,-354.4C427.68,-390.88 427.68,-470 427.68,-470 427.68,-470 485.2,-470 485.2,-470"/>
<polygon fill="black" stroke="black" points="485.2,-473.5 495.2,-470 485.2,-466.5 485.2,-473.5"/>
</g>
<!-- 1 -->
<g id="node7" class="node">
<title>1</title>
<polygon fill="none" stroke="black" points="305.09,-566.4 251.09,-566.4 251.09,-530.4 305.09,-530.4 305.09,-566.4"/>
<text text-anchor="middle" x="278.09" y="-544.6" font-family="Helvetica Neue" font-size="16.00">ACE</text>
</g>
<!-- 10&#45;&gt;1 -->
<g id="edge10" class="edge">
<title>10&#45;&gt;1</title>
<path fill="none" stroke="black" d="M397.71,-341C355.43,-341 278.68,-341 278.68,-341 278.68,-341 278.68,-520.36 278.68,-520.36"/>
<polygon fill="black" stroke="black" points="275.18,-520.36 278.68,-530.36 282.18,-520.36 275.18,-520.36"/>
</g>
<!-- 16 -->
<g id="node9" class="node">
<title>16</title>
<polygon fill="none" stroke="black" points="523.03,-577.41 459.03,-577.41 459.03,-541.41 523.03,-541.41 523.03,-577.41"/>
<text text-anchor="middle" x="491.03" y="-555.61" font-family="Helvetica Neue" font-size="16.00">F#ACD</text>
</g>
<!-- 10&#45;&gt;16 -->
<g id="edge13" class="edge">
<title>10&#45;&gt;16</title>
<path fill="none" stroke="red" d="M452.09,-345C460.09,-345 466.74,-345 466.74,-345 466.74,-345 466.74,-489.28 466.74,-541.13"/>
</g>
<!-- 3 -->
<g id="node15" class="node">
<title>3</title>
<polygon fill="none" stroke="black" points="653.99,-225.73 599.99,-225.73 599.99,-189.73 653.99,-189.73 653.99,-225.73"/>
<text text-anchor="middle" x="626.99" y="-203.93" font-family="Helvetica Neue" font-size="16.00">BDF#</text>
</g>
<!-- 10&#45;&gt;3 -->
<g id="edge24" class="edge">
<title>10&#45;&gt;3</title>
<path fill="none" stroke="black" d="M452.28,-336C510.54,-336 641.38,-336 641.38,-336 641.38,-336 641.38,-235.84 641.38,-235.84"/>
<polygon fill="black" stroke="black" points="644.88,-235.84 641.38,-225.84 637.88,-235.84 644.88,-235.84"/>
</g>
<!-- 18&#45;&gt;23 -->
<g id="edge3" class="edge">
<title>18&#45;&gt;23</title>
<path fill="none" stroke="red" d="M495.21,-475C445.52,-475 348.43,-475 348.43,-475 348.43,-475 348.43,-376.51 348.43,-334.96"/>
</g>
<!-- 18&#45;&gt;19 -->
<g id="edge59" class="edge">
<title>18&#45;&gt;19</title>
<path fill="none" stroke="red" d="M535.63,-468.41C535.63,-459.08 535.63,-447.73 535.63,-438.41"/>
</g>
<!-- 19&#45;&gt;23 -->
<g id="edge60" class="edge">
<title>19&#45;&gt;23</title>
<path fill="none" stroke="red" d="M518.86,-423C465.89,-423 353.82,-423 353.82,-423 353.82,-423 353.82,-365.12 353.82,-334.83"/>
</g>
<!-- 19&#45;&gt;10 -->
<g id="edge5" class="edge">
<title>19&#45;&gt;10</title>
<path fill="none" stroke="black" d="M518.91,-405C487.44,-405 439.77,-405 439.77,-405 439.77,-405 439.77,-364.41 439.77,-364.41"/>
<polygon fill="black" stroke="black" points="443.27,-364.41 439.77,-354.41 436.27,-364.41 443.27,-364.41"/>
</g>
<!-- 9 -->
<g id="node14" class="node">
<title>9</title>
<polygon fill="none" stroke="black" points="415.59,-415.97 359.59,-415.97 359.59,-379.97 415.59,-379.97 415.59,-415.97"/>
<text text-anchor="middle" x="387.59" y="-394.17" font-family="Helvetica Neue" font-size="16.00">DEGA</text>
</g>
<!-- 19&#45;&gt;9 -->
<g id="edge22" class="edge">
<title>19&#45;&gt;9</title>
<path fill="none" stroke="black" d="M518.76,-409C518.76,-409 425.8,-409 425.8,-409"/>
<polygon fill="black" stroke="black" points="425.8,-405.5 415.8,-409 425.8,-412.5 425.8,-405.5"/>
</g>
<!-- 5 -->
<g id="node6" class="node">
<title>5</title>
<polygon fill="none" stroke="black" points="269.47,-193.85 213.47,-193.85 213.47,-157.85 269.47,-157.85 269.47,-193.85"/>
<text text-anchor="middle" x="241.47" y="-172.05" font-family="Helvetica Neue" font-size="16.00">C#EG</text>
</g>
<!-- 17&#45;&gt;5 -->
<g id="edge8" class="edge">
<title>17&#45;&gt;5</title>
<path fill="none" stroke="black" d="M411.4,-139.75C411.4,-152.74 411.4,-168 411.4,-168 411.4,-168 279.53,-168 279.53,-168"/>
<polygon fill="black" stroke="black" points="279.53,-164.5 269.53,-168 279.53,-171.5 279.53,-164.5"/>
</g>
<!-- 5&#45;&gt;10 -->
<g id="edge9" class="edge">
<title>5&#45;&gt;10</title>
<path fill="none" stroke="black" d="M269.7,-179C317.18,-179 407.88,-179 407.88,-179 407.88,-179 407.88,-308.33 407.88,-308.33"/>
<polygon fill="black" stroke="black" points="404.38,-308.33 407.88,-318.33 411.38,-308.33 404.38,-308.33"/>
</g>
<!-- 5&#45;&gt;6 -->
<g id="edge50" class="edge">
<title>5&#45;&gt;6</title>
<path fill="none" stroke="red" d="M219.82,-157.43C219.82,-145.81 219.82,-133 219.82,-133 219.82,-133 193.6,-133 170.86,-133"/>
</g>
<!-- 15 -->
<g id="node12" class="node">
<title>15</title>
<polygon fill="none" stroke="black" points="371.01,-127.95 317.01,-127.95 317.01,-91.95 371.01,-91.95 371.01,-127.95"/>
<text text-anchor="middle" x="344.01" y="-106.15" font-family="Helvetica Neue" font-size="16.00">EGB</text>
</g>
<!-- 5&#45;&gt;15 -->
<g id="edge51" class="edge">
<title>5&#45;&gt;15</title>
<path fill="none" stroke="red" d="M255.04,-157.54C255.04,-140.6 255.04,-118 255.04,-118 255.04,-118 290.67,-118 316.83,-118"/>
</g>
<!-- 14 -->
<g id="node8" class="node">
<title>14</title>
<polygon fill="none" stroke="black" points="344.83,-513.33 288.83,-513.33 288.83,-477.33 344.83,-477.33 344.83,-513.33"/>
<text text-anchor="middle" x="316.83" y="-491.53" font-family="Helvetica Neue" font-size="16.00">EGAC</text>
</g>
<!-- 1&#45;&gt;14 -->
<g id="edge11" class="edge">
<title>1&#45;&gt;14</title>
<path fill="none" stroke="red" d="M296.96,-530.14C296.96,-524.74 296.96,-518.84 296.96,-513.45"/>
</g>
<!-- 7 -->
<g id="node20" class="node">
<title>7</title>
<polygon fill="none" stroke="black" points="230.39,-522.36 176.39,-522.36 176.39,-486.36 230.39,-486.36 230.39,-522.36"/>
<text text-anchor="middle" x="203.39" y="-500.56" font-family="Helvetica Neue" font-size="16.00">CEG</text>
</g>
<!-- 1&#45;&gt;7 -->
<g id="edge42" class="edge">
<title>1&#45;&gt;7</title>
<path fill="none" stroke="red" d="M262.35,-530.28C262.35,-524.23 262.35,-519 262.35,-519 262.35,-519 245.95,-519 230.45,-519"/>
</g>
<!-- 12 -->
<g id="node21" class="node">
<title>12</title>
<polygon fill="none" stroke="black" points="374.29,-614.25 312.29,-614.25 312.29,-578.25 374.29,-578.25 374.29,-614.25"/>
<text text-anchor="middle" x="343.29" y="-592.45" font-family="Helvetica Neue" font-size="16.00">EF#AC</text>
</g>
<!-- 1&#45;&gt;12 -->
<g id="edge43" class="edge">
<title>1&#45;&gt;12</title>
<path fill="none" stroke="red" d="M305.34,-553C314.82,-553 323.14,-553 323.14,-553 323.14,-553 323.14,-566.31 323.14,-578.16"/>
</g>
<!-- 14&#45;&gt;10 -->
<g id="edge12" class="edge">
<title>14&#45;&gt;10</title>
<path fill="none" stroke="black" d="M330.43,-477.14C330.43,-437.53 330.43,-347 330.43,-347 330.43,-347 387.8,-347 387.8,-347"/>
<polygon fill="black" stroke="black" points="387.8,-350.5 397.8,-347 387.8,-343.5 387.8,-350.5"/>
</g>
<!-- 16&#45;&gt;18 -->
<g id="edge14" class="edge">
<title>16&#45;&gt;18</title>
<path fill="none" stroke="black" d="M509.15,-541.38C509.15,-541.38 509.15,-514.55 509.15,-514.55"/>
<polygon fill="black" stroke="black" points="512.65,-514.55 509.15,-504.55 505.65,-514.55 512.65,-514.55"/>
</g>
<!-- 11 -->
<g id="node11" class="node">
<title>11</title>
<polygon fill="none" stroke="black" points="291.18,-42.14 226.18,-42.14 226.18,-6.14 291.18,-6.14 291.18,-42.14"/>
<text text-anchor="middle" x="258.68" y="-20.34" font-family="Helvetica Neue" font-size="16.00">E&#45;F#AB</text>
</g>
<!-- 6&#45;&gt;11 -->
<g id="edge16" class="edge">
<title>6&#45;&gt;11</title>
<path fill="none" stroke="black" d="M170.81,-109C200.81,-109 240.61,-109 240.61,-109 240.61,-109 240.61,-52.55 240.61,-52.55"/>
<polygon fill="black" stroke="black" points="244.11,-52.55 240.61,-42.55 237.11,-52.55 244.11,-52.55"/>
</g>
<!-- 11&#45;&gt;15 -->
<g id="edge17" class="edge">
<title>11&#45;&gt;15</title>
<path fill="none" stroke="black" d="M283.76,-42.27C283.76,-63.56 283.76,-96 283.76,-96 283.76,-96 306.71,-96 306.71,-96"/>
<polygon fill="black" stroke="black" points="306.71,-99.5 316.71,-96 306.71,-92.5 306.71,-99.5"/>
</g>
<!-- 13 -->
<g id="node23" class="node">
<title>13</title>
<polygon fill="none" stroke="black" points="384.28,-36 322.28,-36 322.28,0 384.28,0 384.28,-36"/>
<text text-anchor="middle" x="353.28" y="-14.2" font-family="Helvetica Neue" font-size="16.00">EF#GB</text>
</g>
<!-- 11&#45;&gt;13 -->
<g id="edge35" class="edge">
<title>11&#45;&gt;13</title>
<path fill="none" stroke="black" d="M291.23,-21C291.23,-21 312.26,-21 312.26,-21"/>
<polygon fill="black" stroke="black" points="312.26,-24.5 322.26,-21 312.26,-17.5 312.26,-24.5"/>
</g>
<!-- 15&#45;&gt;23 -->
<g id="edge37" class="edge">
<title>15&#45;&gt;23</title>
<path fill="none" stroke="red" d="M329.88,-128.31C329.88,-167.67 329.88,-259.74 329.88,-298.8"/>
</g>
<!-- 15&#45;&gt;10 -->
<g id="edge18" class="edge">
<title>15&#45;&gt;10</title>
<path fill="none" stroke="black" d="M362.45,-128.03C362.45,-179.31 362.45,-322 362.45,-322 362.45,-322 387.67,-322 387.67,-322"/>
<polygon fill="black" stroke="black" points="387.67,-325.5 397.67,-322 387.67,-318.5 387.67,-325.5"/>
</g>
<!-- 21&#45;&gt;19 -->
<g id="edge21" class="edge">
<title>21&#45;&gt;19</title>
<path fill="none" stroke="black" d="M603.44,-409C603.44,-409 583.24,-409 583.24,-409"/>
<polygon fill="black" stroke="black" points="583.24,-405.5 573.24,-409 583.24,-412.5 583.24,-405.5"/>
</g>
<!-- 9&#45;&gt;10 -->
<g id="edge23" class="edge">
<title>9&#45;&gt;10</title>
<path fill="none" stroke="black" d="M409.68,-379.83C409.68,-379.83 409.68,-364.61 409.68,-364.61"/>
<polygon fill="black" stroke="black" points="413.18,-364.61 409.68,-354.61 406.18,-364.61 413.18,-364.61"/>
</g>
<!-- 9&#45;&gt;19 -->
<g id="edge56" class="edge">
<title>9&#45;&gt;19</title>
<path fill="none" stroke="red" d="M415.91,-412C445.1,-412 490.27,-412 518.97,-412"/>
</g>
<!-- 9&#45;&gt;14 -->
<g id="edge55" class="edge">
<title>9&#45;&gt;14</title>
<path fill="none" stroke="red" d="M369.39,-416.15C369.39,-442.97 369.39,-490 369.39,-490 369.39,-490 357.46,-490 344.96,-490"/>
</g>
<!-- 3&#45;&gt;10 -->
<g id="edge48" class="edge">
<title>3&#45;&gt;10</title>
<path fill="none" stroke="red" d="M628.76,-225.85C628.76,-259.21 628.76,-327 628.76,-327 628.76,-327 507.4,-327 451.94,-327"/>
</g>
<!-- 2 -->
<g id="node16" class="node">
<title>2</title>
<polygon fill="none" stroke="black" points="474.45,-259.11 418.45,-259.11 418.45,-223.11 474.45,-223.11 474.45,-259.11"/>
<text text-anchor="middle" x="446.45" y="-237.31" font-family="Helvetica Neue" font-size="16.00">BDEG</text>
</g>
<!-- 3&#45;&gt;2 -->
<g id="edge25" class="edge">
<title>3&#45;&gt;2</title>
<path fill="none" stroke="black" d="M599.67,-216C554.73,-216 470.14,-216 470.14,-216 470.14,-216 470.14,-216.69 470.14,-216.69"/>
<polygon fill="black" stroke="black" points="466.64,-212.86 470.14,-222.86 473.64,-212.86 466.64,-212.86"/>
</g>
<!-- 2&#45;&gt;23 -->
<g id="edge47" class="edge">
<title>2&#45;&gt;23</title>
<path fill="none" stroke="red" d="M418.39,-252C387.68,-252 342.75,-252 342.75,-252 342.75,-252 342.75,-279.58 342.75,-298.76"/>
</g>
<!-- 2&#45;&gt;17 -->
<g id="edge46" class="edge">
<title>2&#45;&gt;17</title>
<path fill="none" stroke="red" d="M442.14,-222.98C442.14,-200.54 442.14,-162.55 442.14,-140.03"/>
</g>
<!-- 2&#45;&gt;15 -->
<g id="edge45" class="edge">
<title>2&#45;&gt;15</title>
<path fill="none" stroke="red" d="M418.07,-230C394.67,-230 365.3,-230 365.3,-230 365.3,-230 365.3,-161.77 365.3,-128.19"/>
</g>
<!-- 2&#45;&gt;9 -->
<g id="edge44" class="edge">
<title>2&#45;&gt;9</title>
<path fill="none" stroke="red" d="M418.44,-256C404.7,-256 391.07,-256 391.07,-256 391.07,-256 391.07,-341.36 391.07,-379.7"/>
</g>
<!-- 8 -->
<g id="node17" class="node">
<title>8</title>
<polygon fill="none" stroke="black" points="273.61,-364.06 219.61,-364.06 219.61,-328.06 273.61,-328.06 273.61,-364.06"/>
<text text-anchor="middle" x="246.61" y="-342.26" font-family="Helvetica Neue" font-size="16.00">DEG</text>
</g>
<!-- 2&#45;&gt;8 -->
<g id="edge26" class="edge">
<title>2&#45;&gt;8</title>
<path fill="none" stroke="black" d="M418.38,-249C362.9,-249 244.54,-249 244.54,-249 244.54,-249 244.54,-317.8 244.54,-317.8"/>
<polygon fill="black" stroke="black" points="241.04,-317.8 244.54,-327.8 248.04,-317.8 241.04,-317.8"/>
</g>
<!-- 8&#45;&gt;9 -->
<g id="edge54" class="edge">
<title>8&#45;&gt;9</title>
<path fill="none" stroke="red" d="M273.89,-359C309.72,-359 368.16,-359 368.16,-359 368.16,-359 368.16,-369.68 368.16,-379.86"/>
</g>
<!-- 0 -->
<g id="node18" class="node">
<title>0</title>
<polygon fill="none" stroke="black" points="204.84,-246.72 150.84,-246.72 150.84,-210.72 204.84,-210.72 204.84,-246.72"/>
<text text-anchor="middle" x="177.84" y="-224.92" font-family="Helvetica Neue" font-size="16.00">AC#E</text>
</g>
<!-- 8&#45;&gt;0 -->
<g id="edge27" class="edge">
<title>8&#45;&gt;0</title>
<path fill="none" stroke="black" d="M219.59,-343C205.28,-343 190.61,-343 190.61,-343 190.61,-343 190.61,-256.83 190.61,-256.83"/>
<polygon fill="black" stroke="black" points="194.11,-256.83 190.61,-246.83 187.11,-256.83 194.11,-256.83"/>
</g>
<!-- 0&#45;&gt;10 -->
<g id="edge28" class="edge">
<title>0&#45;&gt;10</title>
<path fill="none" stroke="black" d="M205.17,-238C265.41,-238 404.35,-238 404.35,-238 404.35,-238 404.35,-308.34 404.35,-308.34"/>
<polygon fill="black" stroke="black" points="400.85,-308.34 404.35,-318.34 407.85,-308.34 400.85,-308.34"/>
</g>
<!-- 0&#45;&gt;5 -->
<g id="edge40" class="edge">
<title>0&#45;&gt;5</title>
<path fill="none" stroke="red" d="M187.72,-210.53C187.72,-198.15 187.72,-184 187.72,-184 187.72,-184 200.33,-184 213.33,-184"/>
</g>
<!-- 0&#45;&gt;6 -->
<g id="edge41" class="edge">
<title>0&#45;&gt;6</title>
<path fill="none" stroke="red" d="M160.72,-210.51C160.72,-190.09 160.72,-157.14 160.72,-136.7"/>
</g>
<!-- 4&#45;&gt;23 -->
<g id="edge49" class="edge">
<title>4&#45;&gt;23</title>
<path fill="none" stroke="red" d="M90.67,-515.32C90.67,-463.68 90.67,-320 90.67,-320 90.67,-320 238.82,-320 301.32,-320"/>
</g>
<!-- 4&#45;&gt;7 -->
<g id="edge30" class="edge">
<title>4&#45;&gt;7</title>
<path fill="none" stroke="black" d="M98.13,-515.19C98.13,-507.37 98.13,-500 98.13,-500 98.13,-500 166.28,-500 166.28,-500"/>
<polygon fill="black" stroke="black" points="166.28,-503.5 176.28,-500 166.28,-496.5 166.28,-503.5"/>
</g>
<!-- 7&#45;&gt;14 -->
<g id="edge53" class="edge">
<title>7&#45;&gt;14</title>
<path fill="none" stroke="red" d="M230.56,-499C248.13,-499 270.94,-499 288.7,-499"/>
</g>
<!-- 7&#45;&gt;8 -->
<g id="edge52" class="edge">
<title>7&#45;&gt;8</title>
<path fill="none" stroke="red" d="M225,-486.2C225,-455.83 225,-395.05 225,-364.5"/>
</g>
<!-- 7&#45;&gt;12 -->
<g id="edge31" class="edge">
<title>7&#45;&gt;12</title>
<path fill="none" stroke="black" d="M230.45,-516C268.7,-516 333.99,-516 333.99,-516 333.99,-516 333.99,-568.04 333.99,-568.04"/>
<polygon fill="black" stroke="black" points="330.49,-568.04 333.99,-578.04 337.49,-568.04 330.49,-568.04"/>
</g>
<!-- 12&#45;&gt;23 -->
<g id="edge32" class="edge">
<title>12&#45;&gt;23</title>
<path fill="none" stroke="black" d="M346.63,-577.91C346.63,-577.91 346.63,-344.86 346.63,-344.86"/>
<polygon fill="black" stroke="black" points="350.13,-344.86 346.63,-334.86 343.13,-344.86 350.13,-344.86"/>
</g>
<!-- 12&#45;&gt;16 -->
<g id="edge57" class="edge">
<title>12&#45;&gt;16</title>
<path fill="none" stroke="red" d="M364.49,-578.17C364.49,-574.12 364.49,-571 364.49,-571 364.49,-571 421.28,-571 458.77,-571"/>
</g>
<!-- 20&#45;&gt;6 -->
<g id="edge34" class="edge">
<title>20&#45;&gt;6</title>
<path fill="none" stroke="black" d="M75.94,-148C99.24,-148 129.07,-148 129.07,-148 129.07,-148 129.07,-146.67 129.07,-146.67"/>
<polygon fill="black" stroke="black" points="132.57,-146.67 129.07,-136.67 125.57,-146.67 132.57,-146.67"/>
</g>
<!-- 13&#45;&gt;17 -->
<g id="edge58" class="edge">
<title>13&#45;&gt;17</title>
<path fill="none" stroke="red" d="M377.65,-36.24C377.65,-64.34 377.65,-115 377.65,-115 377.65,-115 388.5,-115 400.62,-115"/>
</g>
<!-- 13&#45;&gt;15 -->
<g id="edge36" class="edge">
<title>13&#45;&gt;15</title>
<path fill="none" stroke="black" d="M346.65,-36.17C346.65,-36.17 346.65,-81.82 346.65,-81.82"/>
<polygon fill="black" stroke="black" points="343.15,-81.82 346.65,-91.82 350.15,-81.82 343.15,-81.82"/>
</g>
<!-- 22&#45;&gt;10 -->
<g id="edge39" class="edge">
<title>22&#45;&gt;10</title>
<path fill="none" stroke="black" d="M68.56,-374C155.39,-374 403.77,-374 403.77,-374 403.77,-374 403.77,-364.75 403.77,-364.75"/>
<polygon fill="black" stroke="black" points="407.27,-364.75 403.77,-354.75 400.27,-364.75 407.27,-364.75"/>
</g>
</g>
</svg>
